<mxfile host="app.diagrams.net" modified="2023-11-03T10:39:54.909Z" agent="Mozilla/5.0 (Windows NT 10.0; Win64; x64) AppleWebKit/537.36 (KHTML, like Gecko) Chrome/119.0.0.0 Safari/537.36" etag="f_msnlS8QfbKa1WEl9NC" version="22.0.8" type="device">
  <diagram id="R2lEEEUBdFMjLlhIrx00" name="Page-1">
    <mxGraphModel dx="1221" dy="672" grid="1" gridSize="10" guides="1" tooltips="1" connect="1" arrows="1" fold="1" page="1" pageScale="1" pageWidth="850" pageHeight="1100" math="0" shadow="0" extFonts="Permanent Marker^https://fonts.googleapis.com/css?family=Permanent+Marker">
      <root>
        <mxCell id="0" />
        <mxCell id="1" parent="0" />
        <mxCell id="GJ36CVWwnFn0UGgIxW29-174" value="" style="group" parent="1" vertex="1" connectable="0">
          <mxGeometry x="30" y="10" width="820" height="1080" as="geometry" />
        </mxCell>
        <mxCell id="C-vyLk0tnHw3VtMMgP7b-23" value="orders_table" style="shape=table;startSize=30;container=1;collapsible=1;childLayout=tableLayout;fixedRows=1;rowLines=0;fontStyle=1;align=center;resizeLast=1;" parent="GJ36CVWwnFn0UGgIxW29-174" vertex="1">
          <mxGeometry x="329.60784313725486" y="364.0449438202248" width="200.9803921568627" height="254.83146067415734" as="geometry">
            <mxRectangle x="20" y="110" width="110" height="30" as="alternateBounds" />
          </mxGeometry>
        </mxCell>
        <mxCell id="C-vyLk0tnHw3VtMMgP7b-24" value="" style="shape=partialRectangle;collapsible=0;dropTarget=0;pointerEvents=0;fillColor=none;points=[[0,0.5],[1,0.5]];portConstraint=eastwest;top=0;left=0;right=0;bottom=1;" parent="C-vyLk0tnHw3VtMMgP7b-23" vertex="1">
          <mxGeometry y="30" width="200.9803921568627" height="30" as="geometry" />
        </mxCell>
        <mxCell id="C-vyLk0tnHw3VtMMgP7b-25" value="FK" style="shape=partialRectangle;overflow=hidden;connectable=0;fillColor=none;top=0;left=0;bottom=0;right=0;fontStyle=1;" parent="C-vyLk0tnHw3VtMMgP7b-24" vertex="1">
          <mxGeometry width="30" height="30" as="geometry">
            <mxRectangle width="30" height="30" as="alternateBounds" />
          </mxGeometry>
        </mxCell>
        <mxCell id="C-vyLk0tnHw3VtMMgP7b-26" value="date_uuid" style="shape=partialRectangle;overflow=hidden;connectable=0;fillColor=none;top=0;left=0;bottom=0;right=0;align=left;spacingLeft=6;fontStyle=5;" parent="C-vyLk0tnHw3VtMMgP7b-24" vertex="1">
          <mxGeometry x="30" width="170.9803921568627" height="30" as="geometry">
            <mxRectangle width="170.9803921568627" height="30" as="alternateBounds" />
          </mxGeometry>
        </mxCell>
        <mxCell id="C-vyLk0tnHw3VtMMgP7b-27" value="" style="shape=partialRectangle;collapsible=0;dropTarget=0;pointerEvents=0;fillColor=none;points=[[0,0.5],[1,0.5]];portConstraint=eastwest;top=0;left=0;right=0;bottom=0;" parent="C-vyLk0tnHw3VtMMgP7b-23" vertex="1">
          <mxGeometry y="60" width="200.9803921568627" height="30" as="geometry" />
        </mxCell>
        <mxCell id="C-vyLk0tnHw3VtMMgP7b-28" value="FK" style="shape=partialRectangle;overflow=hidden;connectable=0;fillColor=none;top=0;left=0;bottom=0;right=0;" parent="C-vyLk0tnHw3VtMMgP7b-27" vertex="1">
          <mxGeometry width="30" height="30" as="geometry">
            <mxRectangle width="30" height="30" as="alternateBounds" />
          </mxGeometry>
        </mxCell>
        <mxCell id="C-vyLk0tnHw3VtMMgP7b-29" value="user_uuid" style="shape=partialRectangle;overflow=hidden;connectable=0;fillColor=none;top=0;left=0;bottom=0;right=0;align=left;spacingLeft=6;" parent="C-vyLk0tnHw3VtMMgP7b-27" vertex="1">
          <mxGeometry x="30" width="170.9803921568627" height="30" as="geometry">
            <mxRectangle width="170.9803921568627" height="30" as="alternateBounds" />
          </mxGeometry>
        </mxCell>
        <mxCell id="GJ36CVWwnFn0UGgIxW29-1" value="" style="shape=partialRectangle;collapsible=0;dropTarget=0;pointerEvents=0;fillColor=none;points=[[0,0.5],[1,0.5]];portConstraint=eastwest;top=0;left=0;right=0;bottom=0;" parent="C-vyLk0tnHw3VtMMgP7b-23" vertex="1">
          <mxGeometry y="90" width="200.9803921568627" height="30" as="geometry" />
        </mxCell>
        <mxCell id="GJ36CVWwnFn0UGgIxW29-2" value="" style="shape=partialRectangle;overflow=hidden;connectable=0;fillColor=none;top=0;left=0;bottom=0;right=0;" parent="GJ36CVWwnFn0UGgIxW29-1" vertex="1">
          <mxGeometry width="30" height="30" as="geometry">
            <mxRectangle width="30" height="30" as="alternateBounds" />
          </mxGeometry>
        </mxCell>
        <mxCell id="GJ36CVWwnFn0UGgIxW29-3" value="card_number" style="shape=partialRectangle;overflow=hidden;connectable=0;fillColor=none;top=0;left=0;bottom=0;right=0;align=left;spacingLeft=6;" parent="GJ36CVWwnFn0UGgIxW29-1" vertex="1">
          <mxGeometry x="30" width="170.9803921568627" height="30" as="geometry">
            <mxRectangle width="170.9803921568627" height="30" as="alternateBounds" />
          </mxGeometry>
        </mxCell>
        <mxCell id="GJ36CVWwnFn0UGgIxW29-4" value="" style="shape=partialRectangle;collapsible=0;dropTarget=0;pointerEvents=0;fillColor=none;points=[[0,0.5],[1,0.5]];portConstraint=eastwest;top=0;left=0;right=0;bottom=0;" parent="C-vyLk0tnHw3VtMMgP7b-23" vertex="1">
          <mxGeometry y="120" width="200.9803921568627" height="30" as="geometry" />
        </mxCell>
        <mxCell id="GJ36CVWwnFn0UGgIxW29-5" value="" style="shape=partialRectangle;overflow=hidden;connectable=0;fillColor=none;top=0;left=0;bottom=0;right=0;" parent="GJ36CVWwnFn0UGgIxW29-4" vertex="1">
          <mxGeometry width="30" height="30" as="geometry">
            <mxRectangle width="30" height="30" as="alternateBounds" />
          </mxGeometry>
        </mxCell>
        <mxCell id="GJ36CVWwnFn0UGgIxW29-6" value="store_code" style="shape=partialRectangle;overflow=hidden;connectable=0;fillColor=none;top=0;left=0;bottom=0;right=0;align=left;spacingLeft=6;" parent="GJ36CVWwnFn0UGgIxW29-4" vertex="1">
          <mxGeometry x="30" width="170.9803921568627" height="30" as="geometry">
            <mxRectangle width="170.9803921568627" height="30" as="alternateBounds" />
          </mxGeometry>
        </mxCell>
        <mxCell id="GJ36CVWwnFn0UGgIxW29-7" value="" style="shape=partialRectangle;collapsible=0;dropTarget=0;pointerEvents=0;fillColor=none;points=[[0,0.5],[1,0.5]];portConstraint=eastwest;top=0;left=0;right=0;bottom=0;" parent="C-vyLk0tnHw3VtMMgP7b-23" vertex="1">
          <mxGeometry y="150" width="200.9803921568627" height="30" as="geometry" />
        </mxCell>
        <mxCell id="GJ36CVWwnFn0UGgIxW29-8" value="" style="shape=partialRectangle;overflow=hidden;connectable=0;fillColor=none;top=0;left=0;bottom=0;right=0;" parent="GJ36CVWwnFn0UGgIxW29-7" vertex="1">
          <mxGeometry width="30" height="30" as="geometry">
            <mxRectangle width="30" height="30" as="alternateBounds" />
          </mxGeometry>
        </mxCell>
        <mxCell id="GJ36CVWwnFn0UGgIxW29-9" value="product_code" style="shape=partialRectangle;overflow=hidden;connectable=0;fillColor=none;top=0;left=0;bottom=0;right=0;align=left;spacingLeft=6;" parent="GJ36CVWwnFn0UGgIxW29-7" vertex="1">
          <mxGeometry x="30" width="170.9803921568627" height="30" as="geometry">
            <mxRectangle width="170.9803921568627" height="30" as="alternateBounds" />
          </mxGeometry>
        </mxCell>
        <mxCell id="GJ36CVWwnFn0UGgIxW29-26" value="" style="shape=partialRectangle;collapsible=0;dropTarget=0;pointerEvents=0;fillColor=none;points=[[0,0.5],[1,0.5]];portConstraint=eastwest;top=0;left=0;right=0;bottom=0;" parent="C-vyLk0tnHw3VtMMgP7b-23" vertex="1">
          <mxGeometry y="180" width="200.9803921568627" height="30" as="geometry" />
        </mxCell>
        <mxCell id="GJ36CVWwnFn0UGgIxW29-27" value="" style="shape=partialRectangle;overflow=hidden;connectable=0;fillColor=none;top=0;left=0;bottom=0;right=0;" parent="GJ36CVWwnFn0UGgIxW29-26" vertex="1">
          <mxGeometry width="30" height="30" as="geometry">
            <mxRectangle width="30" height="30" as="alternateBounds" />
          </mxGeometry>
        </mxCell>
        <mxCell id="GJ36CVWwnFn0UGgIxW29-28" value="product_quantity" style="shape=partialRectangle;overflow=hidden;connectable=0;fillColor=none;top=0;left=0;bottom=0;right=0;align=left;spacingLeft=6;" parent="GJ36CVWwnFn0UGgIxW29-26" vertex="1">
          <mxGeometry x="30" width="170.9803921568627" height="30" as="geometry">
            <mxRectangle width="170.9803921568627" height="30" as="alternateBounds" />
          </mxGeometry>
        </mxCell>
        <mxCell id="GJ36CVWwnFn0UGgIxW29-29" value="dim_users" style="shape=table;startSize=30;container=1;collapsible=1;childLayout=tableLayout;fixedRows=1;rowLines=0;fontStyle=1;align=center;resizeLast=1;" parent="GJ36CVWwnFn0UGgIxW29-174" vertex="1">
          <mxGeometry x="337.64705882352933" width="200.9803921568627" height="254.83146067415734" as="geometry">
            <mxRectangle x="20" y="110" width="110" height="30" as="alternateBounds" />
          </mxGeometry>
        </mxCell>
        <mxCell id="GJ36CVWwnFn0UGgIxW29-30" value="" style="shape=partialRectangle;collapsible=0;dropTarget=0;pointerEvents=0;fillColor=none;points=[[0,0.5],[1,0.5]];portConstraint=eastwest;top=0;left=0;right=0;bottom=1;" parent="GJ36CVWwnFn0UGgIxW29-29" vertex="1">
          <mxGeometry y="30" width="200.9803921568627" height="30" as="geometry" />
        </mxCell>
        <mxCell id="GJ36CVWwnFn0UGgIxW29-31" value="PK" style="shape=partialRectangle;overflow=hidden;connectable=0;fillColor=none;top=0;left=0;bottom=0;right=0;fontStyle=1;" parent="GJ36CVWwnFn0UGgIxW29-30" vertex="1">
          <mxGeometry width="30" height="30" as="geometry">
            <mxRectangle width="30" height="30" as="alternateBounds" />
          </mxGeometry>
        </mxCell>
        <mxCell id="GJ36CVWwnFn0UGgIxW29-32" value="user_uuidÂ " style="shape=partialRectangle;overflow=hidden;connectable=0;fillColor=none;top=0;left=0;bottom=0;right=0;align=left;spacingLeft=6;fontStyle=5;" parent="GJ36CVWwnFn0UGgIxW29-30" vertex="1">
          <mxGeometry x="30" width="170.9803921568627" height="30" as="geometry">
            <mxRectangle width="170.9803921568627" height="30" as="alternateBounds" />
          </mxGeometry>
        </mxCell>
        <mxCell id="GJ36CVWwnFn0UGgIxW29-33" value="" style="shape=partialRectangle;collapsible=0;dropTarget=0;pointerEvents=0;fillColor=none;points=[[0,0.5],[1,0.5]];portConstraint=eastwest;top=0;left=0;right=0;bottom=0;" parent="GJ36CVWwnFn0UGgIxW29-29" vertex="1">
          <mxGeometry y="60" width="200.9803921568627" height="30" as="geometry" />
        </mxCell>
        <mxCell id="GJ36CVWwnFn0UGgIxW29-34" value="" style="shape=partialRectangle;overflow=hidden;connectable=0;fillColor=none;top=0;left=0;bottom=0;right=0;" parent="GJ36CVWwnFn0UGgIxW29-33" vertex="1">
          <mxGeometry width="30" height="30" as="geometry">
            <mxRectangle width="30" height="30" as="alternateBounds" />
          </mxGeometry>
        </mxCell>
        <mxCell id="GJ36CVWwnFn0UGgIxW29-35" value="last_nameÂ Â Â Â " style="shape=partialRectangle;overflow=hidden;connectable=0;fillColor=none;top=0;left=0;bottom=0;right=0;align=left;spacingLeft=6;" parent="GJ36CVWwnFn0UGgIxW29-33" vertex="1">
          <mxGeometry x="30" width="170.9803921568627" height="30" as="geometry">
            <mxRectangle width="170.9803921568627" height="30" as="alternateBounds" />
          </mxGeometry>
        </mxCell>
        <mxCell id="GJ36CVWwnFn0UGgIxW29-36" value="" style="shape=partialRectangle;collapsible=0;dropTarget=0;pointerEvents=0;fillColor=none;points=[[0,0.5],[1,0.5]];portConstraint=eastwest;top=0;left=0;right=0;bottom=0;" parent="GJ36CVWwnFn0UGgIxW29-29" vertex="1">
          <mxGeometry y="90" width="200.9803921568627" height="30" as="geometry" />
        </mxCell>
        <mxCell id="GJ36CVWwnFn0UGgIxW29-37" value="" style="shape=partialRectangle;overflow=hidden;connectable=0;fillColor=none;top=0;left=0;bottom=0;right=0;" parent="GJ36CVWwnFn0UGgIxW29-36" vertex="1">
          <mxGeometry width="30" height="30" as="geometry">
            <mxRectangle width="30" height="30" as="alternateBounds" />
          </mxGeometry>
        </mxCell>
        <mxCell id="GJ36CVWwnFn0UGgIxW29-38" value="date_of_birth" style="shape=partialRectangle;overflow=hidden;connectable=0;fillColor=none;top=0;left=0;bottom=0;right=0;align=left;spacingLeft=6;" parent="GJ36CVWwnFn0UGgIxW29-36" vertex="1">
          <mxGeometry x="30" width="170.9803921568627" height="30" as="geometry">
            <mxRectangle width="170.9803921568627" height="30" as="alternateBounds" />
          </mxGeometry>
        </mxCell>
        <mxCell id="GJ36CVWwnFn0UGgIxW29-39" value="" style="shape=partialRectangle;collapsible=0;dropTarget=0;pointerEvents=0;fillColor=none;points=[[0,0.5],[1,0.5]];portConstraint=eastwest;top=0;left=0;right=0;bottom=0;" parent="GJ36CVWwnFn0UGgIxW29-29" vertex="1">
          <mxGeometry y="120" width="200.9803921568627" height="30" as="geometry" />
        </mxCell>
        <mxCell id="GJ36CVWwnFn0UGgIxW29-40" value="" style="shape=partialRectangle;overflow=hidden;connectable=0;fillColor=none;top=0;left=0;bottom=0;right=0;" parent="GJ36CVWwnFn0UGgIxW29-39" vertex="1">
          <mxGeometry width="30" height="30" as="geometry">
            <mxRectangle width="30" height="30" as="alternateBounds" />
          </mxGeometry>
        </mxCell>
        <mxCell id="GJ36CVWwnFn0UGgIxW29-41" value="country_code" style="shape=partialRectangle;overflow=hidden;connectable=0;fillColor=none;top=0;left=0;bottom=0;right=0;align=left;spacingLeft=6;" parent="GJ36CVWwnFn0UGgIxW29-39" vertex="1">
          <mxGeometry x="30" width="170.9803921568627" height="30" as="geometry">
            <mxRectangle width="170.9803921568627" height="30" as="alternateBounds" />
          </mxGeometry>
        </mxCell>
        <mxCell id="GJ36CVWwnFn0UGgIxW29-42" value="" style="shape=partialRectangle;collapsible=0;dropTarget=0;pointerEvents=0;fillColor=none;points=[[0,0.5],[1,0.5]];portConstraint=eastwest;top=0;left=0;right=0;bottom=0;" parent="GJ36CVWwnFn0UGgIxW29-29" vertex="1">
          <mxGeometry y="150" width="200.9803921568627" height="30" as="geometry" />
        </mxCell>
        <mxCell id="GJ36CVWwnFn0UGgIxW29-43" value="" style="shape=partialRectangle;overflow=hidden;connectable=0;fillColor=none;top=0;left=0;bottom=0;right=0;" parent="GJ36CVWwnFn0UGgIxW29-42" vertex="1">
          <mxGeometry width="30" height="30" as="geometry">
            <mxRectangle width="30" height="30" as="alternateBounds" />
          </mxGeometry>
        </mxCell>
        <mxCell id="GJ36CVWwnFn0UGgIxW29-44" value="first_name" style="shape=partialRectangle;overflow=hidden;connectable=0;fillColor=none;top=0;left=0;bottom=0;right=0;align=left;spacingLeft=6;" parent="GJ36CVWwnFn0UGgIxW29-42" vertex="1">
          <mxGeometry x="30" width="170.9803921568627" height="30" as="geometry">
            <mxRectangle width="170.9803921568627" height="30" as="alternateBounds" />
          </mxGeometry>
        </mxCell>
        <mxCell id="GJ36CVWwnFn0UGgIxW29-45" value="" style="shape=partialRectangle;collapsible=0;dropTarget=0;pointerEvents=0;fillColor=none;points=[[0,0.5],[1,0.5]];portConstraint=eastwest;top=0;left=0;right=0;bottom=0;" parent="GJ36CVWwnFn0UGgIxW29-29" vertex="1">
          <mxGeometry y="180" width="200.9803921568627" height="30" as="geometry" />
        </mxCell>
        <mxCell id="GJ36CVWwnFn0UGgIxW29-46" value="" style="shape=partialRectangle;overflow=hidden;connectable=0;fillColor=none;top=0;left=0;bottom=0;right=0;" parent="GJ36CVWwnFn0UGgIxW29-45" vertex="1">
          <mxGeometry width="30" height="30" as="geometry">
            <mxRectangle width="30" height="30" as="alternateBounds" />
          </mxGeometry>
        </mxCell>
        <mxCell id="GJ36CVWwnFn0UGgIxW29-47" value="join_date" style="shape=partialRectangle;overflow=hidden;connectable=0;fillColor=none;top=0;left=0;bottom=0;right=0;align=left;spacingLeft=6;" parent="GJ36CVWwnFn0UGgIxW29-45" vertex="1">
          <mxGeometry x="30" width="170.9803921568627" height="30" as="geometry">
            <mxRectangle width="170.9803921568627" height="30" as="alternateBounds" />
          </mxGeometry>
        </mxCell>
        <mxCell id="GJ36CVWwnFn0UGgIxW29-48" value="dim_card_details" style="shape=table;startSize=30;container=1;collapsible=1;childLayout=tableLayout;fixedRows=1;rowLines=0;fontStyle=1;align=center;resizeLast=1;" parent="GJ36CVWwnFn0UGgIxW29-174" vertex="1">
          <mxGeometry y="36.40449438202247" width="200.9803921568627" height="254.83146067415734" as="geometry">
            <mxRectangle x="20" y="110" width="110" height="30" as="alternateBounds" />
          </mxGeometry>
        </mxCell>
        <mxCell id="GJ36CVWwnFn0UGgIxW29-49" value="" style="shape=partialRectangle;collapsible=0;dropTarget=0;pointerEvents=0;fillColor=none;points=[[0,0.5],[1,0.5]];portConstraint=eastwest;top=0;left=0;right=0;bottom=1;" parent="GJ36CVWwnFn0UGgIxW29-48" vertex="1">
          <mxGeometry y="30" width="200.9803921568627" height="30" as="geometry" />
        </mxCell>
        <mxCell id="GJ36CVWwnFn0UGgIxW29-50" value="PK" style="shape=partialRectangle;overflow=hidden;connectable=0;fillColor=none;top=0;left=0;bottom=0;right=0;fontStyle=1;" parent="GJ36CVWwnFn0UGgIxW29-49" vertex="1">
          <mxGeometry width="30" height="30" as="geometry">
            <mxRectangle width="30" height="30" as="alternateBounds" />
          </mxGeometry>
        </mxCell>
        <mxCell id="GJ36CVWwnFn0UGgIxW29-51" value="card_number" style="shape=partialRectangle;overflow=hidden;connectable=0;fillColor=none;top=0;left=0;bottom=0;right=0;align=left;spacingLeft=6;fontStyle=5;" parent="GJ36CVWwnFn0UGgIxW29-49" vertex="1">
          <mxGeometry x="30" width="170.9803921568627" height="30" as="geometry">
            <mxRectangle width="170.9803921568627" height="30" as="alternateBounds" />
          </mxGeometry>
        </mxCell>
        <mxCell id="GJ36CVWwnFn0UGgIxW29-52" value="" style="shape=partialRectangle;collapsible=0;dropTarget=0;pointerEvents=0;fillColor=none;points=[[0,0.5],[1,0.5]];portConstraint=eastwest;top=0;left=0;right=0;bottom=0;" parent="GJ36CVWwnFn0UGgIxW29-48" vertex="1">
          <mxGeometry y="60" width="200.9803921568627" height="30" as="geometry" />
        </mxCell>
        <mxCell id="GJ36CVWwnFn0UGgIxW29-53" value="" style="shape=partialRectangle;overflow=hidden;connectable=0;fillColor=none;top=0;left=0;bottom=0;right=0;" parent="GJ36CVWwnFn0UGgIxW29-52" vertex="1">
          <mxGeometry width="30" height="30" as="geometry">
            <mxRectangle width="30" height="30" as="alternateBounds" />
          </mxGeometry>
        </mxCell>
        <mxCell id="GJ36CVWwnFn0UGgIxW29-54" value="expiry_date" style="shape=partialRectangle;overflow=hidden;connectable=0;fillColor=none;top=0;left=0;bottom=0;right=0;align=left;spacingLeft=6;" parent="GJ36CVWwnFn0UGgIxW29-52" vertex="1">
          <mxGeometry x="30" width="170.9803921568627" height="30" as="geometry">
            <mxRectangle width="170.9803921568627" height="30" as="alternateBounds" />
          </mxGeometry>
        </mxCell>
        <mxCell id="GJ36CVWwnFn0UGgIxW29-55" value="" style="shape=partialRectangle;collapsible=0;dropTarget=0;pointerEvents=0;fillColor=none;points=[[0,0.5],[1,0.5]];portConstraint=eastwest;top=0;left=0;right=0;bottom=0;" parent="GJ36CVWwnFn0UGgIxW29-48" vertex="1">
          <mxGeometry y="90" width="200.9803921568627" height="30" as="geometry" />
        </mxCell>
        <mxCell id="GJ36CVWwnFn0UGgIxW29-56" value="" style="shape=partialRectangle;overflow=hidden;connectable=0;fillColor=none;top=0;left=0;bottom=0;right=0;" parent="GJ36CVWwnFn0UGgIxW29-55" vertex="1">
          <mxGeometry width="30" height="30" as="geometry">
            <mxRectangle width="30" height="30" as="alternateBounds" />
          </mxGeometry>
        </mxCell>
        <mxCell id="GJ36CVWwnFn0UGgIxW29-57" value="card_provider" style="shape=partialRectangle;overflow=hidden;connectable=0;fillColor=none;top=0;left=0;bottom=0;right=0;align=left;spacingLeft=6;" parent="GJ36CVWwnFn0UGgIxW29-55" vertex="1">
          <mxGeometry x="30" width="170.9803921568627" height="30" as="geometry">
            <mxRectangle width="170.9803921568627" height="30" as="alternateBounds" />
          </mxGeometry>
        </mxCell>
        <mxCell id="GJ36CVWwnFn0UGgIxW29-58" value="" style="shape=partialRectangle;collapsible=0;dropTarget=0;pointerEvents=0;fillColor=none;points=[[0,0.5],[1,0.5]];portConstraint=eastwest;top=0;left=0;right=0;bottom=0;" parent="GJ36CVWwnFn0UGgIxW29-48" vertex="1">
          <mxGeometry y="120" width="200.9803921568627" height="30" as="geometry" />
        </mxCell>
        <mxCell id="GJ36CVWwnFn0UGgIxW29-59" value="" style="shape=partialRectangle;overflow=hidden;connectable=0;fillColor=none;top=0;left=0;bottom=0;right=0;" parent="GJ36CVWwnFn0UGgIxW29-58" vertex="1">
          <mxGeometry width="30" height="30" as="geometry">
            <mxRectangle width="30" height="30" as="alternateBounds" />
          </mxGeometry>
        </mxCell>
        <mxCell id="GJ36CVWwnFn0UGgIxW29-60" value="date_payment_confirmed" style="shape=partialRectangle;overflow=hidden;connectable=0;fillColor=none;top=0;left=0;bottom=0;right=0;align=left;spacingLeft=6;" parent="GJ36CVWwnFn0UGgIxW29-58" vertex="1">
          <mxGeometry x="30" width="170.9803921568627" height="30" as="geometry">
            <mxRectangle width="170.9803921568627" height="30" as="alternateBounds" />
          </mxGeometry>
        </mxCell>
        <mxCell id="GJ36CVWwnFn0UGgIxW29-61" value="" style="shape=partialRectangle;collapsible=0;dropTarget=0;pointerEvents=0;fillColor=none;points=[[0,0.5],[1,0.5]];portConstraint=eastwest;top=0;left=0;right=0;bottom=0;" parent="GJ36CVWwnFn0UGgIxW29-48" vertex="1">
          <mxGeometry y="150" width="200.9803921568627" height="30" as="geometry" />
        </mxCell>
        <mxCell id="GJ36CVWwnFn0UGgIxW29-62" value="" style="shape=partialRectangle;overflow=hidden;connectable=0;fillColor=none;top=0;left=0;bottom=0;right=0;" parent="GJ36CVWwnFn0UGgIxW29-61" vertex="1">
          <mxGeometry width="30" height="30" as="geometry">
            <mxRectangle width="30" height="30" as="alternateBounds" />
          </mxGeometry>
        </mxCell>
        <mxCell id="GJ36CVWwnFn0UGgIxW29-63" value="card_number expiry_date" style="shape=partialRectangle;overflow=hidden;connectable=0;fillColor=none;top=0;left=0;bottom=0;right=0;align=left;spacingLeft=6;" parent="GJ36CVWwnFn0UGgIxW29-61" vertex="1">
          <mxGeometry x="30" width="170.9803921568627" height="30" as="geometry">
            <mxRectangle width="170.9803921568627" height="30" as="alternateBounds" />
          </mxGeometry>
        </mxCell>
        <mxCell id="GJ36CVWwnFn0UGgIxW29-64" value="" style="shape=partialRectangle;collapsible=0;dropTarget=0;pointerEvents=0;fillColor=none;points=[[0,0.5],[1,0.5]];portConstraint=eastwest;top=0;left=0;right=0;bottom=0;" parent="GJ36CVWwnFn0UGgIxW29-48" vertex="1">
          <mxGeometry y="180" width="200.9803921568627" height="30" as="geometry" />
        </mxCell>
        <mxCell id="GJ36CVWwnFn0UGgIxW29-65" value="" style="shape=partialRectangle;overflow=hidden;connectable=0;fillColor=none;top=0;left=0;bottom=0;right=0;" parent="GJ36CVWwnFn0UGgIxW29-64" vertex="1">
          <mxGeometry width="30" height="30" as="geometry">
            <mxRectangle width="30" height="30" as="alternateBounds" />
          </mxGeometry>
        </mxCell>
        <mxCell id="GJ36CVWwnFn0UGgIxW29-66" value="" style="shape=partialRectangle;overflow=hidden;connectable=0;fillColor=none;top=0;left=0;bottom=0;right=0;align=left;spacingLeft=6;" parent="GJ36CVWwnFn0UGgIxW29-64" vertex="1">
          <mxGeometry x="30" width="170.9803921568627" height="30" as="geometry">
            <mxRectangle width="170.9803921568627" height="30" as="alternateBounds" />
          </mxGeometry>
        </mxCell>
        <mxCell id="GJ36CVWwnFn0UGgIxW29-67" value="dim_store_details" style="shape=table;startSize=30;container=1;collapsible=1;childLayout=tableLayout;fixedRows=1;rowLines=0;fontStyle=1;align=center;resizeLast=1;" parent="GJ36CVWwnFn0UGgIxW29-174" vertex="1">
          <mxGeometry x="619.0196078431371" y="631.0112359550561" width="200.9803921568627" height="400.4494382022472" as="geometry">
            <mxRectangle x="20" y="110" width="110" height="30" as="alternateBounds" />
          </mxGeometry>
        </mxCell>
        <mxCell id="GJ36CVWwnFn0UGgIxW29-68" value="" style="shape=partialRectangle;collapsible=0;dropTarget=0;pointerEvents=0;fillColor=none;points=[[0,0.5],[1,0.5]];portConstraint=eastwest;top=0;left=0;right=0;bottom=1;" parent="GJ36CVWwnFn0UGgIxW29-67" vertex="1">
          <mxGeometry y="30" width="200.9803921568627" height="30" as="geometry" />
        </mxCell>
        <mxCell id="GJ36CVWwnFn0UGgIxW29-69" value="PK" style="shape=partialRectangle;overflow=hidden;connectable=0;fillColor=none;top=0;left=0;bottom=0;right=0;fontStyle=1;" parent="GJ36CVWwnFn0UGgIxW29-68" vertex="1">
          <mxGeometry width="30" height="30" as="geometry">
            <mxRectangle width="30" height="30" as="alternateBounds" />
          </mxGeometry>
        </mxCell>
        <mxCell id="GJ36CVWwnFn0UGgIxW29-70" value="store_code" style="shape=partialRectangle;overflow=hidden;connectable=0;fillColor=none;top=0;left=0;bottom=0;right=0;align=left;spacingLeft=6;fontStyle=5;" parent="GJ36CVWwnFn0UGgIxW29-68" vertex="1">
          <mxGeometry x="30" width="170.9803921568627" height="30" as="geometry">
            <mxRectangle width="170.9803921568627" height="30" as="alternateBounds" />
          </mxGeometry>
        </mxCell>
        <mxCell id="GJ36CVWwnFn0UGgIxW29-71" value="" style="shape=partialRectangle;collapsible=0;dropTarget=0;pointerEvents=0;fillColor=none;points=[[0,0.5],[1,0.5]];portConstraint=eastwest;top=0;left=0;right=0;bottom=0;" parent="GJ36CVWwnFn0UGgIxW29-67" vertex="1">
          <mxGeometry y="60" width="200.9803921568627" height="30" as="geometry" />
        </mxCell>
        <mxCell id="GJ36CVWwnFn0UGgIxW29-72" value="" style="shape=partialRectangle;overflow=hidden;connectable=0;fillColor=none;top=0;left=0;bottom=0;right=0;" parent="GJ36CVWwnFn0UGgIxW29-71" vertex="1">
          <mxGeometry width="30" height="30" as="geometry">
            <mxRectangle width="30" height="30" as="alternateBounds" />
          </mxGeometry>
        </mxCell>
        <mxCell id="GJ36CVWwnFn0UGgIxW29-73" value="locality" style="shape=partialRectangle;overflow=hidden;connectable=0;fillColor=none;top=0;left=0;bottom=0;right=0;align=left;spacingLeft=6;" parent="GJ36CVWwnFn0UGgIxW29-71" vertex="1">
          <mxGeometry x="30" width="170.9803921568627" height="30" as="geometry">
            <mxRectangle width="170.9803921568627" height="30" as="alternateBounds" />
          </mxGeometry>
        </mxCell>
        <mxCell id="GJ36CVWwnFn0UGgIxW29-74" value="" style="shape=partialRectangle;collapsible=0;dropTarget=0;pointerEvents=0;fillColor=none;points=[[0,0.5],[1,0.5]];portConstraint=eastwest;top=0;left=0;right=0;bottom=0;" parent="GJ36CVWwnFn0UGgIxW29-67" vertex="1">
          <mxGeometry y="90" width="200.9803921568627" height="30" as="geometry" />
        </mxCell>
        <mxCell id="GJ36CVWwnFn0UGgIxW29-75" value="" style="shape=partialRectangle;overflow=hidden;connectable=0;fillColor=none;top=0;left=0;bottom=0;right=0;" parent="GJ36CVWwnFn0UGgIxW29-74" vertex="1">
          <mxGeometry width="30" height="30" as="geometry">
            <mxRectangle width="30" height="30" as="alternateBounds" />
          </mxGeometry>
        </mxCell>
        <mxCell id="GJ36CVWwnFn0UGgIxW29-76" value="longitude" style="shape=partialRectangle;overflow=hidden;connectable=0;fillColor=none;top=0;left=0;bottom=0;right=0;align=left;spacingLeft=6;" parent="GJ36CVWwnFn0UGgIxW29-74" vertex="1">
          <mxGeometry x="30" width="170.9803921568627" height="30" as="geometry">
            <mxRectangle width="170.9803921568627" height="30" as="alternateBounds" />
          </mxGeometry>
        </mxCell>
        <mxCell id="GJ36CVWwnFn0UGgIxW29-77" value="" style="shape=partialRectangle;collapsible=0;dropTarget=0;pointerEvents=0;fillColor=none;points=[[0,0.5],[1,0.5]];portConstraint=eastwest;top=0;left=0;right=0;bottom=0;" parent="GJ36CVWwnFn0UGgIxW29-67" vertex="1">
          <mxGeometry y="120" width="200.9803921568627" height="30" as="geometry" />
        </mxCell>
        <mxCell id="GJ36CVWwnFn0UGgIxW29-78" value="" style="shape=partialRectangle;overflow=hidden;connectable=0;fillColor=none;top=0;left=0;bottom=0;right=0;" parent="GJ36CVWwnFn0UGgIxW29-77" vertex="1">
          <mxGeometry width="30" height="30" as="geometry">
            <mxRectangle width="30" height="30" as="alternateBounds" />
          </mxGeometry>
        </mxCell>
        <mxCell id="GJ36CVWwnFn0UGgIxW29-79" value="staff_numbers" style="shape=partialRectangle;overflow=hidden;connectable=0;fillColor=none;top=0;left=0;bottom=0;right=0;align=left;spacingLeft=6;" parent="GJ36CVWwnFn0UGgIxW29-77" vertex="1">
          <mxGeometry x="30" width="170.9803921568627" height="30" as="geometry">
            <mxRectangle width="170.9803921568627" height="30" as="alternateBounds" />
          </mxGeometry>
        </mxCell>
        <mxCell id="GJ36CVWwnFn0UGgIxW29-80" value="" style="shape=partialRectangle;collapsible=0;dropTarget=0;pointerEvents=0;fillColor=none;points=[[0,0.5],[1,0.5]];portConstraint=eastwest;top=0;left=0;right=0;bottom=0;" parent="GJ36CVWwnFn0UGgIxW29-67" vertex="1">
          <mxGeometry y="150" width="200.9803921568627" height="30" as="geometry" />
        </mxCell>
        <mxCell id="GJ36CVWwnFn0UGgIxW29-81" value="" style="shape=partialRectangle;overflow=hidden;connectable=0;fillColor=none;top=0;left=0;bottom=0;right=0;" parent="GJ36CVWwnFn0UGgIxW29-80" vertex="1">
          <mxGeometry width="30" height="30" as="geometry">
            <mxRectangle width="30" height="30" as="alternateBounds" />
          </mxGeometry>
        </mxCell>
        <mxCell id="GJ36CVWwnFn0UGgIxW29-82" value="opening_date" style="shape=partialRectangle;overflow=hidden;connectable=0;fillColor=none;top=0;left=0;bottom=0;right=0;align=left;spacingLeft=6;" parent="GJ36CVWwnFn0UGgIxW29-80" vertex="1">
          <mxGeometry x="30" width="170.9803921568627" height="30" as="geometry">
            <mxRectangle width="170.9803921568627" height="30" as="alternateBounds" />
          </mxGeometry>
        </mxCell>
        <mxCell id="GJ36CVWwnFn0UGgIxW29-83" value="" style="shape=partialRectangle;collapsible=0;dropTarget=0;pointerEvents=0;fillColor=none;points=[[0,0.5],[1,0.5]];portConstraint=eastwest;top=0;left=0;right=0;bottom=0;" parent="GJ36CVWwnFn0UGgIxW29-67" vertex="1">
          <mxGeometry y="180" width="200.9803921568627" height="30" as="geometry" />
        </mxCell>
        <mxCell id="GJ36CVWwnFn0UGgIxW29-84" value="" style="shape=partialRectangle;overflow=hidden;connectable=0;fillColor=none;top=0;left=0;bottom=0;right=0;" parent="GJ36CVWwnFn0UGgIxW29-83" vertex="1">
          <mxGeometry width="30" height="30" as="geometry">
            <mxRectangle width="30" height="30" as="alternateBounds" />
          </mxGeometry>
        </mxCell>
        <mxCell id="GJ36CVWwnFn0UGgIxW29-85" value="store_type" style="shape=partialRectangle;overflow=hidden;connectable=0;fillColor=none;top=0;left=0;bottom=0;right=0;align=left;spacingLeft=6;" parent="GJ36CVWwnFn0UGgIxW29-83" vertex="1">
          <mxGeometry x="30" width="170.9803921568627" height="30" as="geometry">
            <mxRectangle width="170.9803921568627" height="30" as="alternateBounds" />
          </mxGeometry>
        </mxCell>
        <mxCell id="GJ36CVWwnFn0UGgIxW29-86" value="" style="shape=partialRectangle;collapsible=0;dropTarget=0;pointerEvents=0;fillColor=none;points=[[0,0.5],[1,0.5]];portConstraint=eastwest;top=0;left=0;right=0;bottom=0;" parent="GJ36CVWwnFn0UGgIxW29-67" vertex="1">
          <mxGeometry y="210" width="200.9803921568627" height="30" as="geometry" />
        </mxCell>
        <mxCell id="GJ36CVWwnFn0UGgIxW29-87" value="" style="shape=partialRectangle;overflow=hidden;connectable=0;fillColor=none;top=0;left=0;bottom=0;right=0;" parent="GJ36CVWwnFn0UGgIxW29-86" vertex="1">
          <mxGeometry width="30" height="30" as="geometry">
            <mxRectangle width="30" height="30" as="alternateBounds" />
          </mxGeometry>
        </mxCell>
        <mxCell id="GJ36CVWwnFn0UGgIxW29-88" value="latitude" style="shape=partialRectangle;overflow=hidden;connectable=0;fillColor=none;top=0;left=0;bottom=0;right=0;align=left;spacingLeft=6;" parent="GJ36CVWwnFn0UGgIxW29-86" vertex="1">
          <mxGeometry x="30" width="170.9803921568627" height="30" as="geometry">
            <mxRectangle width="170.9803921568627" height="30" as="alternateBounds" />
          </mxGeometry>
        </mxCell>
        <mxCell id="GJ36CVWwnFn0UGgIxW29-89" value="" style="shape=partialRectangle;collapsible=0;dropTarget=0;pointerEvents=0;fillColor=none;points=[[0,0.5],[1,0.5]];portConstraint=eastwest;top=0;left=0;right=0;bottom=0;" parent="GJ36CVWwnFn0UGgIxW29-67" vertex="1">
          <mxGeometry y="240" width="200.9803921568627" height="30" as="geometry" />
        </mxCell>
        <mxCell id="GJ36CVWwnFn0UGgIxW29-90" value="" style="shape=partialRectangle;overflow=hidden;connectable=0;fillColor=none;top=0;left=0;bottom=0;right=0;" parent="GJ36CVWwnFn0UGgIxW29-89" vertex="1">
          <mxGeometry width="30" height="30" as="geometry">
            <mxRectangle width="30" height="30" as="alternateBounds" />
          </mxGeometry>
        </mxCell>
        <mxCell id="GJ36CVWwnFn0UGgIxW29-91" value="country_code" style="shape=partialRectangle;overflow=hidden;connectable=0;fillColor=none;top=0;left=0;bottom=0;right=0;align=left;spacingLeft=6;" parent="GJ36CVWwnFn0UGgIxW29-89" vertex="1">
          <mxGeometry x="30" width="170.9803921568627" height="30" as="geometry">
            <mxRectangle width="170.9803921568627" height="30" as="alternateBounds" />
          </mxGeometry>
        </mxCell>
        <mxCell id="GJ36CVWwnFn0UGgIxW29-92" value="" style="shape=partialRectangle;collapsible=0;dropTarget=0;pointerEvents=0;fillColor=none;points=[[0,0.5],[1,0.5]];portConstraint=eastwest;top=0;left=0;right=0;bottom=0;" parent="GJ36CVWwnFn0UGgIxW29-67" vertex="1">
          <mxGeometry y="270" width="200.9803921568627" height="30" as="geometry" />
        </mxCell>
        <mxCell id="GJ36CVWwnFn0UGgIxW29-93" value="" style="shape=partialRectangle;overflow=hidden;connectable=0;fillColor=none;top=0;left=0;bottom=0;right=0;" parent="GJ36CVWwnFn0UGgIxW29-92" vertex="1">
          <mxGeometry width="30" height="30" as="geometry">
            <mxRectangle width="30" height="30" as="alternateBounds" />
          </mxGeometry>
        </mxCell>
        <mxCell id="GJ36CVWwnFn0UGgIxW29-94" value="continent" style="shape=partialRectangle;overflow=hidden;connectable=0;fillColor=none;top=0;left=0;bottom=0;right=0;align=left;spacingLeft=6;" parent="GJ36CVWwnFn0UGgIxW29-92" vertex="1">
          <mxGeometry x="30" width="170.9803921568627" height="30" as="geometry">
            <mxRectangle width="170.9803921568627" height="30" as="alternateBounds" />
          </mxGeometry>
        </mxCell>
        <mxCell id="GJ36CVWwnFn0UGgIxW29-95" value="" style="shape=partialRectangle;collapsible=0;dropTarget=0;pointerEvents=0;fillColor=none;points=[[0,0.5],[1,0.5]];portConstraint=eastwest;top=0;left=0;right=0;bottom=0;" parent="GJ36CVWwnFn0UGgIxW29-67" vertex="1">
          <mxGeometry y="300" width="200.9803921568627" height="30" as="geometry" />
        </mxCell>
        <mxCell id="GJ36CVWwnFn0UGgIxW29-96" value="" style="shape=partialRectangle;overflow=hidden;connectable=0;fillColor=none;top=0;left=0;bottom=0;right=0;" parent="GJ36CVWwnFn0UGgIxW29-95" vertex="1">
          <mxGeometry width="30" height="30" as="geometry">
            <mxRectangle width="30" height="30" as="alternateBounds" />
          </mxGeometry>
        </mxCell>
        <mxCell id="GJ36CVWwnFn0UGgIxW29-97" value="" style="shape=partialRectangle;overflow=hidden;connectable=0;fillColor=none;top=0;left=0;bottom=0;right=0;align=left;spacingLeft=6;" parent="GJ36CVWwnFn0UGgIxW29-95" vertex="1">
          <mxGeometry x="30" width="170.9803921568627" height="30" as="geometry">
            <mxRectangle width="170.9803921568627" height="30" as="alternateBounds" />
          </mxGeometry>
        </mxCell>
        <mxCell id="GJ36CVWwnFn0UGgIxW29-98" value="dim_products" style="shape=table;startSize=30;container=1;collapsible=1;childLayout=tableLayout;fixedRows=1;rowLines=0;fontStyle=1;align=center;resizeLast=1;" parent="GJ36CVWwnFn0UGgIxW29-174" vertex="1">
          <mxGeometry y="643.1460674157304" width="200.9803921568627" height="436.8539325842697" as="geometry">
            <mxRectangle x="20" y="110" width="110" height="30" as="alternateBounds" />
          </mxGeometry>
        </mxCell>
        <mxCell id="GJ36CVWwnFn0UGgIxW29-99" value="" style="shape=partialRectangle;collapsible=0;dropTarget=0;pointerEvents=0;fillColor=none;points=[[0,0.5],[1,0.5]];portConstraint=eastwest;top=0;left=0;right=0;bottom=1;" parent="GJ36CVWwnFn0UGgIxW29-98" vertex="1">
          <mxGeometry y="30" width="200.9803921568627" height="30" as="geometry" />
        </mxCell>
        <mxCell id="GJ36CVWwnFn0UGgIxW29-100" value="PK" style="shape=partialRectangle;overflow=hidden;connectable=0;fillColor=none;top=0;left=0;bottom=0;right=0;fontStyle=1;" parent="GJ36CVWwnFn0UGgIxW29-99" vertex="1">
          <mxGeometry width="30" height="30" as="geometry">
            <mxRectangle width="30" height="30" as="alternateBounds" />
          </mxGeometry>
        </mxCell>
        <mxCell id="GJ36CVWwnFn0UGgIxW29-101" value="product_code" style="shape=partialRectangle;overflow=hidden;connectable=0;fillColor=none;top=0;left=0;bottom=0;right=0;align=left;spacingLeft=6;fontStyle=5;" parent="GJ36CVWwnFn0UGgIxW29-99" vertex="1">
          <mxGeometry x="30" width="170.9803921568627" height="30" as="geometry">
            <mxRectangle width="170.9803921568627" height="30" as="alternateBounds" />
          </mxGeometry>
        </mxCell>
        <mxCell id="GJ36CVWwnFn0UGgIxW29-102" value="" style="shape=partialRectangle;collapsible=0;dropTarget=0;pointerEvents=0;fillColor=none;points=[[0,0.5],[1,0.5]];portConstraint=eastwest;top=0;left=0;right=0;bottom=0;" parent="GJ36CVWwnFn0UGgIxW29-98" vertex="1">
          <mxGeometry y="60" width="200.9803921568627" height="30" as="geometry" />
        </mxCell>
        <mxCell id="GJ36CVWwnFn0UGgIxW29-103" value="" style="shape=partialRectangle;overflow=hidden;connectable=0;fillColor=none;top=0;left=0;bottom=0;right=0;" parent="GJ36CVWwnFn0UGgIxW29-102" vertex="1">
          <mxGeometry width="30" height="30" as="geometry">
            <mxRectangle width="30" height="30" as="alternateBounds" />
          </mxGeometry>
        </mxCell>
        <mxCell id="GJ36CVWwnFn0UGgIxW29-104" value="product_name" style="shape=partialRectangle;overflow=hidden;connectable=0;fillColor=none;top=0;left=0;bottom=0;right=0;align=left;spacingLeft=6;" parent="GJ36CVWwnFn0UGgIxW29-102" vertex="1">
          <mxGeometry x="30" width="170.9803921568627" height="30" as="geometry">
            <mxRectangle width="170.9803921568627" height="30" as="alternateBounds" />
          </mxGeometry>
        </mxCell>
        <mxCell id="GJ36CVWwnFn0UGgIxW29-105" value="" style="shape=partialRectangle;collapsible=0;dropTarget=0;pointerEvents=0;fillColor=none;points=[[0,0.5],[1,0.5]];portConstraint=eastwest;top=0;left=0;right=0;bottom=0;" parent="GJ36CVWwnFn0UGgIxW29-98" vertex="1">
          <mxGeometry y="90" width="200.9803921568627" height="30" as="geometry" />
        </mxCell>
        <mxCell id="GJ36CVWwnFn0UGgIxW29-106" value="" style="shape=partialRectangle;overflow=hidden;connectable=0;fillColor=none;top=0;left=0;bottom=0;right=0;" parent="GJ36CVWwnFn0UGgIxW29-105" vertex="1">
          <mxGeometry width="30" height="30" as="geometry">
            <mxRectangle width="30" height="30" as="alternateBounds" />
          </mxGeometry>
        </mxCell>
        <mxCell id="GJ36CVWwnFn0UGgIxW29-107" value="product_price" style="shape=partialRectangle;overflow=hidden;connectable=0;fillColor=none;top=0;left=0;bottom=0;right=0;align=left;spacingLeft=6;" parent="GJ36CVWwnFn0UGgIxW29-105" vertex="1">
          <mxGeometry x="30" width="170.9803921568627" height="30" as="geometry">
            <mxRectangle width="170.9803921568627" height="30" as="alternateBounds" />
          </mxGeometry>
        </mxCell>
        <mxCell id="GJ36CVWwnFn0UGgIxW29-108" value="" style="shape=partialRectangle;collapsible=0;dropTarget=0;pointerEvents=0;fillColor=none;points=[[0,0.5],[1,0.5]];portConstraint=eastwest;top=0;left=0;right=0;bottom=0;" parent="GJ36CVWwnFn0UGgIxW29-98" vertex="1">
          <mxGeometry y="120" width="200.9803921568627" height="30" as="geometry" />
        </mxCell>
        <mxCell id="GJ36CVWwnFn0UGgIxW29-109" value="" style="shape=partialRectangle;overflow=hidden;connectable=0;fillColor=none;top=0;left=0;bottom=0;right=0;" parent="GJ36CVWwnFn0UGgIxW29-108" vertex="1">
          <mxGeometry width="30" height="30" as="geometry">
            <mxRectangle width="30" height="30" as="alternateBounds" />
          </mxGeometry>
        </mxCell>
        <mxCell id="GJ36CVWwnFn0UGgIxW29-110" value="weight" style="shape=partialRectangle;overflow=hidden;connectable=0;fillColor=none;top=0;left=0;bottom=0;right=0;align=left;spacingLeft=6;" parent="GJ36CVWwnFn0UGgIxW29-108" vertex="1">
          <mxGeometry x="30" width="170.9803921568627" height="30" as="geometry">
            <mxRectangle width="170.9803921568627" height="30" as="alternateBounds" />
          </mxGeometry>
        </mxCell>
        <mxCell id="GJ36CVWwnFn0UGgIxW29-111" value="" style="shape=partialRectangle;collapsible=0;dropTarget=0;pointerEvents=0;fillColor=none;points=[[0,0.5],[1,0.5]];portConstraint=eastwest;top=0;left=0;right=0;bottom=0;" parent="GJ36CVWwnFn0UGgIxW29-98" vertex="1">
          <mxGeometry y="150" width="200.9803921568627" height="30" as="geometry" />
        </mxCell>
        <mxCell id="GJ36CVWwnFn0UGgIxW29-112" value="" style="shape=partialRectangle;overflow=hidden;connectable=0;fillColor=none;top=0;left=0;bottom=0;right=0;" parent="GJ36CVWwnFn0UGgIxW29-111" vertex="1">
          <mxGeometry width="30" height="30" as="geometry">
            <mxRectangle width="30" height="30" as="alternateBounds" />
          </mxGeometry>
        </mxCell>
        <mxCell id="GJ36CVWwnFn0UGgIxW29-113" value="category" style="shape=partialRectangle;overflow=hidden;connectable=0;fillColor=none;top=0;left=0;bottom=0;right=0;align=left;spacingLeft=6;" parent="GJ36CVWwnFn0UGgIxW29-111" vertex="1">
          <mxGeometry x="30" width="170.9803921568627" height="30" as="geometry">
            <mxRectangle width="170.9803921568627" height="30" as="alternateBounds" />
          </mxGeometry>
        </mxCell>
        <mxCell id="GJ36CVWwnFn0UGgIxW29-114" value="" style="shape=partialRectangle;collapsible=0;dropTarget=0;pointerEvents=0;fillColor=none;points=[[0,0.5],[1,0.5]];portConstraint=eastwest;top=0;left=0;right=0;bottom=0;" parent="GJ36CVWwnFn0UGgIxW29-98" vertex="1">
          <mxGeometry y="180" width="200.9803921568627" height="30" as="geometry" />
        </mxCell>
        <mxCell id="GJ36CVWwnFn0UGgIxW29-115" value="" style="shape=partialRectangle;overflow=hidden;connectable=0;fillColor=none;top=0;left=0;bottom=0;right=0;" parent="GJ36CVWwnFn0UGgIxW29-114" vertex="1">
          <mxGeometry width="30" height="30" as="geometry">
            <mxRectangle width="30" height="30" as="alternateBounds" />
          </mxGeometry>
        </mxCell>
        <mxCell id="GJ36CVWwnFn0UGgIxW29-116" value="weight_class" style="shape=partialRectangle;overflow=hidden;connectable=0;fillColor=none;top=0;left=0;bottom=0;right=0;align=left;spacingLeft=6;" parent="GJ36CVWwnFn0UGgIxW29-114" vertex="1">
          <mxGeometry x="30" width="170.9803921568627" height="30" as="geometry">
            <mxRectangle width="170.9803921568627" height="30" as="alternateBounds" />
          </mxGeometry>
        </mxCell>
        <mxCell id="GJ36CVWwnFn0UGgIxW29-120" value="" style="shape=partialRectangle;collapsible=0;dropTarget=0;pointerEvents=0;fillColor=none;points=[[0,0.5],[1,0.5]];portConstraint=eastwest;top=0;left=0;right=0;bottom=0;" parent="GJ36CVWwnFn0UGgIxW29-98" vertex="1">
          <mxGeometry y="210" width="200.9803921568627" height="30" as="geometry" />
        </mxCell>
        <mxCell id="GJ36CVWwnFn0UGgIxW29-121" value="" style="shape=partialRectangle;overflow=hidden;connectable=0;fillColor=none;top=0;left=0;bottom=0;right=0;" parent="GJ36CVWwnFn0UGgIxW29-120" vertex="1">
          <mxGeometry width="30" height="30" as="geometry">
            <mxRectangle width="30" height="30" as="alternateBounds" />
          </mxGeometry>
        </mxCell>
        <mxCell id="GJ36CVWwnFn0UGgIxW29-122" value="EAN" style="shape=partialRectangle;overflow=hidden;connectable=0;fillColor=none;top=0;left=0;bottom=0;right=0;align=left;spacingLeft=6;" parent="GJ36CVWwnFn0UGgIxW29-120" vertex="1">
          <mxGeometry x="30" width="170.9803921568627" height="30" as="geometry">
            <mxRectangle width="170.9803921568627" height="30" as="alternateBounds" />
          </mxGeometry>
        </mxCell>
        <mxCell id="GJ36CVWwnFn0UGgIxW29-123" value="" style="shape=partialRectangle;collapsible=0;dropTarget=0;pointerEvents=0;fillColor=none;points=[[0,0.5],[1,0.5]];portConstraint=eastwest;top=0;left=0;right=0;bottom=0;" parent="GJ36CVWwnFn0UGgIxW29-98" vertex="1">
          <mxGeometry y="240" width="200.9803921568627" height="30" as="geometry" />
        </mxCell>
        <mxCell id="GJ36CVWwnFn0UGgIxW29-124" value="" style="shape=partialRectangle;overflow=hidden;connectable=0;fillColor=none;top=0;left=0;bottom=0;right=0;" parent="GJ36CVWwnFn0UGgIxW29-123" vertex="1">
          <mxGeometry width="30" height="30" as="geometry">
            <mxRectangle width="30" height="30" as="alternateBounds" />
          </mxGeometry>
        </mxCell>
        <mxCell id="GJ36CVWwnFn0UGgIxW29-125" value="date_added" style="shape=partialRectangle;overflow=hidden;connectable=0;fillColor=none;top=0;left=0;bottom=0;right=0;align=left;spacingLeft=6;" parent="GJ36CVWwnFn0UGgIxW29-123" vertex="1">
          <mxGeometry x="30" width="170.9803921568627" height="30" as="geometry">
            <mxRectangle width="170.9803921568627" height="30" as="alternateBounds" />
          </mxGeometry>
        </mxCell>
        <mxCell id="GJ36CVWwnFn0UGgIxW29-126" value="" style="shape=partialRectangle;collapsible=0;dropTarget=0;pointerEvents=0;fillColor=none;points=[[0,0.5],[1,0.5]];portConstraint=eastwest;top=0;left=0;right=0;bottom=0;" parent="GJ36CVWwnFn0UGgIxW29-98" vertex="1">
          <mxGeometry y="270" width="200.9803921568627" height="30" as="geometry" />
        </mxCell>
        <mxCell id="GJ36CVWwnFn0UGgIxW29-127" value="" style="shape=partialRectangle;overflow=hidden;connectable=0;fillColor=none;top=0;left=0;bottom=0;right=0;" parent="GJ36CVWwnFn0UGgIxW29-126" vertex="1">
          <mxGeometry width="30" height="30" as="geometry">
            <mxRectangle width="30" height="30" as="alternateBounds" />
          </mxGeometry>
        </mxCell>
        <mxCell id="GJ36CVWwnFn0UGgIxW29-128" value="index" style="shape=partialRectangle;overflow=hidden;connectable=0;fillColor=none;top=0;left=0;bottom=0;right=0;align=left;spacingLeft=6;" parent="GJ36CVWwnFn0UGgIxW29-126" vertex="1">
          <mxGeometry x="30" width="170.9803921568627" height="30" as="geometry">
            <mxRectangle width="170.9803921568627" height="30" as="alternateBounds" />
          </mxGeometry>
        </mxCell>
        <mxCell id="GJ36CVWwnFn0UGgIxW29-129" value="" style="shape=partialRectangle;collapsible=0;dropTarget=0;pointerEvents=0;fillColor=none;points=[[0,0.5],[1,0.5]];portConstraint=eastwest;top=0;left=0;right=0;bottom=0;" parent="GJ36CVWwnFn0UGgIxW29-98" vertex="1">
          <mxGeometry y="300" width="200.9803921568627" height="30" as="geometry" />
        </mxCell>
        <mxCell id="GJ36CVWwnFn0UGgIxW29-130" value="" style="shape=partialRectangle;overflow=hidden;connectable=0;fillColor=none;top=0;left=0;bottom=0;right=0;" parent="GJ36CVWwnFn0UGgIxW29-129" vertex="1">
          <mxGeometry width="30" height="30" as="geometry">
            <mxRectangle width="30" height="30" as="alternateBounds" />
          </mxGeometry>
        </mxCell>
        <mxCell id="GJ36CVWwnFn0UGgIxW29-131" value="still_available" style="shape=partialRectangle;overflow=hidden;connectable=0;fillColor=none;top=0;left=0;bottom=0;right=0;align=left;spacingLeft=6;" parent="GJ36CVWwnFn0UGgIxW29-129" vertex="1">
          <mxGeometry x="30" width="170.9803921568627" height="30" as="geometry">
            <mxRectangle width="170.9803921568627" height="30" as="alternateBounds" />
          </mxGeometry>
        </mxCell>
        <mxCell id="GJ36CVWwnFn0UGgIxW29-132" value="" style="shape=partialRectangle;collapsible=0;dropTarget=0;pointerEvents=0;fillColor=none;points=[[0,0.5],[1,0.5]];portConstraint=eastwest;top=0;left=0;right=0;bottom=0;" parent="GJ36CVWwnFn0UGgIxW29-98" vertex="1">
          <mxGeometry y="330" width="200.9803921568627" height="30" as="geometry" />
        </mxCell>
        <mxCell id="GJ36CVWwnFn0UGgIxW29-133" value="" style="shape=partialRectangle;overflow=hidden;connectable=0;fillColor=none;top=0;left=0;bottom=0;right=0;" parent="GJ36CVWwnFn0UGgIxW29-132" vertex="1">
          <mxGeometry width="30" height="30" as="geometry">
            <mxRectangle width="30" height="30" as="alternateBounds" />
          </mxGeometry>
        </mxCell>
        <mxCell id="GJ36CVWwnFn0UGgIxW29-134" value="uuid" style="shape=partialRectangle;overflow=hidden;connectable=0;fillColor=none;top=0;left=0;bottom=0;right=0;align=left;spacingLeft=6;" parent="GJ36CVWwnFn0UGgIxW29-132" vertex="1">
          <mxGeometry x="30" width="170.9803921568627" height="30" as="geometry">
            <mxRectangle width="170.9803921568627" height="30" as="alternateBounds" />
          </mxGeometry>
        </mxCell>
        <mxCell id="GJ36CVWwnFn0UGgIxW29-135" value="dim_date_times" style="shape=table;startSize=30;container=1;collapsible=1;childLayout=tableLayout;fixedRows=1;rowLines=0;fontStyle=1;align=center;resizeLast=1;" parent="GJ36CVWwnFn0UGgIxW29-174" vertex="1">
          <mxGeometry x="619.0196078431371" y="60.67415730337079" width="200.9803921568627" height="400.4494382022472" as="geometry">
            <mxRectangle x="20" y="110" width="110" height="30" as="alternateBounds" />
          </mxGeometry>
        </mxCell>
        <mxCell id="GJ36CVWwnFn0UGgIxW29-136" value="" style="shape=partialRectangle;collapsible=0;dropTarget=0;pointerEvents=0;fillColor=none;points=[[0,0.5],[1,0.5]];portConstraint=eastwest;top=0;left=0;right=0;bottom=1;" parent="GJ36CVWwnFn0UGgIxW29-135" vertex="1">
          <mxGeometry y="30" width="200.9803921568627" height="30" as="geometry" />
        </mxCell>
        <mxCell id="GJ36CVWwnFn0UGgIxW29-137" value="PK" style="shape=partialRectangle;overflow=hidden;connectable=0;fillColor=none;top=0;left=0;bottom=0;right=0;fontStyle=1;" parent="GJ36CVWwnFn0UGgIxW29-136" vertex="1">
          <mxGeometry width="30" height="30" as="geometry">
            <mxRectangle width="30" height="30" as="alternateBounds" />
          </mxGeometry>
        </mxCell>
        <mxCell id="GJ36CVWwnFn0UGgIxW29-138" value="date_uuid" style="shape=partialRectangle;overflow=hidden;connectable=0;fillColor=none;top=0;left=0;bottom=0;right=0;align=left;spacingLeft=6;fontStyle=5;" parent="GJ36CVWwnFn0UGgIxW29-136" vertex="1">
          <mxGeometry x="30" width="170.9803921568627" height="30" as="geometry">
            <mxRectangle width="170.9803921568627" height="30" as="alternateBounds" />
          </mxGeometry>
        </mxCell>
        <mxCell id="GJ36CVWwnFn0UGgIxW29-139" value="" style="shape=partialRectangle;collapsible=0;dropTarget=0;pointerEvents=0;fillColor=none;points=[[0,0.5],[1,0.5]];portConstraint=eastwest;top=0;left=0;right=0;bottom=0;" parent="GJ36CVWwnFn0UGgIxW29-135" vertex="1">
          <mxGeometry y="60" width="200.9803921568627" height="30" as="geometry" />
        </mxCell>
        <mxCell id="GJ36CVWwnFn0UGgIxW29-140" value="" style="shape=partialRectangle;overflow=hidden;connectable=0;fillColor=none;top=0;left=0;bottom=0;right=0;" parent="GJ36CVWwnFn0UGgIxW29-139" vertex="1">
          <mxGeometry width="30" height="30" as="geometry">
            <mxRectangle width="30" height="30" as="alternateBounds" />
          </mxGeometry>
        </mxCell>
        <mxCell id="GJ36CVWwnFn0UGgIxW29-141" value="month" style="shape=partialRectangle;overflow=hidden;connectable=0;fillColor=none;top=0;left=0;bottom=0;right=0;align=left;spacingLeft=6;" parent="GJ36CVWwnFn0UGgIxW29-139" vertex="1">
          <mxGeometry x="30" width="170.9803921568627" height="30" as="geometry">
            <mxRectangle width="170.9803921568627" height="30" as="alternateBounds" />
          </mxGeometry>
        </mxCell>
        <mxCell id="GJ36CVWwnFn0UGgIxW29-142" value="" style="shape=partialRectangle;collapsible=0;dropTarget=0;pointerEvents=0;fillColor=none;points=[[0,0.5],[1,0.5]];portConstraint=eastwest;top=0;left=0;right=0;bottom=0;" parent="GJ36CVWwnFn0UGgIxW29-135" vertex="1">
          <mxGeometry y="90" width="200.9803921568627" height="30" as="geometry" />
        </mxCell>
        <mxCell id="GJ36CVWwnFn0UGgIxW29-143" value="" style="shape=partialRectangle;overflow=hidden;connectable=0;fillColor=none;top=0;left=0;bottom=0;right=0;" parent="GJ36CVWwnFn0UGgIxW29-142" vertex="1">
          <mxGeometry width="30" height="30" as="geometry">
            <mxRectangle width="30" height="30" as="alternateBounds" />
          </mxGeometry>
        </mxCell>
        <mxCell id="GJ36CVWwnFn0UGgIxW29-144" value="year" style="shape=partialRectangle;overflow=hidden;connectable=0;fillColor=none;top=0;left=0;bottom=0;right=0;align=left;spacingLeft=6;" parent="GJ36CVWwnFn0UGgIxW29-142" vertex="1">
          <mxGeometry x="30" width="170.9803921568627" height="30" as="geometry">
            <mxRectangle width="170.9803921568627" height="30" as="alternateBounds" />
          </mxGeometry>
        </mxCell>
        <mxCell id="GJ36CVWwnFn0UGgIxW29-145" value="" style="shape=partialRectangle;collapsible=0;dropTarget=0;pointerEvents=0;fillColor=none;points=[[0,0.5],[1,0.5]];portConstraint=eastwest;top=0;left=0;right=0;bottom=0;" parent="GJ36CVWwnFn0UGgIxW29-135" vertex="1">
          <mxGeometry y="120" width="200.9803921568627" height="30" as="geometry" />
        </mxCell>
        <mxCell id="GJ36CVWwnFn0UGgIxW29-146" value="" style="shape=partialRectangle;overflow=hidden;connectable=0;fillColor=none;top=0;left=0;bottom=0;right=0;" parent="GJ36CVWwnFn0UGgIxW29-145" vertex="1">
          <mxGeometry width="30" height="30" as="geometry">
            <mxRectangle width="30" height="30" as="alternateBounds" />
          </mxGeometry>
        </mxCell>
        <mxCell id="GJ36CVWwnFn0UGgIxW29-147" value="day" style="shape=partialRectangle;overflow=hidden;connectable=0;fillColor=none;top=0;left=0;bottom=0;right=0;align=left;spacingLeft=6;" parent="GJ36CVWwnFn0UGgIxW29-145" vertex="1">
          <mxGeometry x="30" width="170.9803921568627" height="30" as="geometry">
            <mxRectangle width="170.9803921568627" height="30" as="alternateBounds" />
          </mxGeometry>
        </mxCell>
        <mxCell id="GJ36CVWwnFn0UGgIxW29-148" value="" style="shape=partialRectangle;collapsible=0;dropTarget=0;pointerEvents=0;fillColor=none;points=[[0,0.5],[1,0.5]];portConstraint=eastwest;top=0;left=0;right=0;bottom=0;" parent="GJ36CVWwnFn0UGgIxW29-135" vertex="1">
          <mxGeometry y="150" width="200.9803921568627" height="30" as="geometry" />
        </mxCell>
        <mxCell id="GJ36CVWwnFn0UGgIxW29-149" value="" style="shape=partialRectangle;overflow=hidden;connectable=0;fillColor=none;top=0;left=0;bottom=0;right=0;" parent="GJ36CVWwnFn0UGgIxW29-148" vertex="1">
          <mxGeometry width="30" height="30" as="geometry">
            <mxRectangle width="30" height="30" as="alternateBounds" />
          </mxGeometry>
        </mxCell>
        <mxCell id="GJ36CVWwnFn0UGgIxW29-150" value="time_period" style="shape=partialRectangle;overflow=hidden;connectable=0;fillColor=none;top=0;left=0;bottom=0;right=0;align=left;spacingLeft=6;" parent="GJ36CVWwnFn0UGgIxW29-148" vertex="1">
          <mxGeometry x="30" width="170.9803921568627" height="30" as="geometry">
            <mxRectangle width="170.9803921568627" height="30" as="alternateBounds" />
          </mxGeometry>
        </mxCell>
        <mxCell id="GJ36CVWwnFn0UGgIxW29-151" value="" style="shape=partialRectangle;collapsible=0;dropTarget=0;pointerEvents=0;fillColor=none;points=[[0,0.5],[1,0.5]];portConstraint=eastwest;top=0;left=0;right=0;bottom=0;" parent="GJ36CVWwnFn0UGgIxW29-135" vertex="1">
          <mxGeometry y="180" width="200.9803921568627" height="30" as="geometry" />
        </mxCell>
        <mxCell id="GJ36CVWwnFn0UGgIxW29-152" value="" style="shape=partialRectangle;overflow=hidden;connectable=0;fillColor=none;top=0;left=0;bottom=0;right=0;" parent="GJ36CVWwnFn0UGgIxW29-151" vertex="1">
          <mxGeometry width="30" height="30" as="geometry">
            <mxRectangle width="30" height="30" as="alternateBounds" />
          </mxGeometry>
        </mxCell>
        <mxCell id="GJ36CVWwnFn0UGgIxW29-153" value="timestamp" style="shape=partialRectangle;overflow=hidden;connectable=0;fillColor=none;top=0;left=0;bottom=0;right=0;align=left;spacingLeft=6;" parent="GJ36CVWwnFn0UGgIxW29-151" vertex="1">
          <mxGeometry x="30" width="170.9803921568627" height="30" as="geometry">
            <mxRectangle width="170.9803921568627" height="30" as="alternateBounds" />
          </mxGeometry>
        </mxCell>
        <mxCell id="GJ36CVWwnFn0UGgIxW29-154" value="" style="shape=partialRectangle;collapsible=0;dropTarget=0;pointerEvents=0;fillColor=none;points=[[0,0.5],[1,0.5]];portConstraint=eastwest;top=0;left=0;right=0;bottom=0;" parent="GJ36CVWwnFn0UGgIxW29-135" vertex="1">
          <mxGeometry y="210" width="200.9803921568627" height="30" as="geometry" />
        </mxCell>
        <mxCell id="GJ36CVWwnFn0UGgIxW29-155" value="" style="shape=partialRectangle;overflow=hidden;connectable=0;fillColor=none;top=0;left=0;bottom=0;right=0;" parent="GJ36CVWwnFn0UGgIxW29-154" vertex="1">
          <mxGeometry width="30" height="30" as="geometry">
            <mxRectangle width="30" height="30" as="alternateBounds" />
          </mxGeometry>
        </mxCell>
        <mxCell id="GJ36CVWwnFn0UGgIxW29-156" value="datetime" style="shape=partialRectangle;overflow=hidden;connectable=0;fillColor=none;top=0;left=0;bottom=0;right=0;align=left;spacingLeft=6;" parent="GJ36CVWwnFn0UGgIxW29-154" vertex="1">
          <mxGeometry x="30" width="170.9803921568627" height="30" as="geometry">
            <mxRectangle width="170.9803921568627" height="30" as="alternateBounds" />
          </mxGeometry>
        </mxCell>
        <mxCell id="GJ36CVWwnFn0UGgIxW29-157" value="" style="shape=partialRectangle;collapsible=0;dropTarget=0;pointerEvents=0;fillColor=none;points=[[0,0.5],[1,0.5]];portConstraint=eastwest;top=0;left=0;right=0;bottom=0;" parent="GJ36CVWwnFn0UGgIxW29-135" vertex="1">
          <mxGeometry y="240" width="200.9803921568627" height="30" as="geometry" />
        </mxCell>
        <mxCell id="GJ36CVWwnFn0UGgIxW29-158" value="" style="shape=partialRectangle;overflow=hidden;connectable=0;fillColor=none;top=0;left=0;bottom=0;right=0;" parent="GJ36CVWwnFn0UGgIxW29-157" vertex="1">
          <mxGeometry width="30" height="30" as="geometry">
            <mxRectangle width="30" height="30" as="alternateBounds" />
          </mxGeometry>
        </mxCell>
        <mxCell id="GJ36CVWwnFn0UGgIxW29-159" value="" style="shape=partialRectangle;overflow=hidden;connectable=0;fillColor=none;top=0;left=0;bottom=0;right=0;align=left;spacingLeft=6;" parent="GJ36CVWwnFn0UGgIxW29-157" vertex="1">
          <mxGeometry x="30" width="170.9803921568627" height="30" as="geometry">
            <mxRectangle width="170.9803921568627" height="30" as="alternateBounds" />
          </mxGeometry>
        </mxCell>
        <mxCell id="GJ36CVWwnFn0UGgIxW29-160" value="" style="shape=partialRectangle;collapsible=0;dropTarget=0;pointerEvents=0;fillColor=none;points=[[0,0.5],[1,0.5]];portConstraint=eastwest;top=0;left=0;right=0;bottom=0;" parent="GJ36CVWwnFn0UGgIxW29-135" vertex="1">
          <mxGeometry y="270" width="200.9803921568627" height="30" as="geometry" />
        </mxCell>
        <mxCell id="GJ36CVWwnFn0UGgIxW29-161" value="" style="shape=partialRectangle;overflow=hidden;connectable=0;fillColor=none;top=0;left=0;bottom=0;right=0;" parent="GJ36CVWwnFn0UGgIxW29-160" vertex="1">
          <mxGeometry width="30" height="30" as="geometry">
            <mxRectangle width="30" height="30" as="alternateBounds" />
          </mxGeometry>
        </mxCell>
        <mxCell id="GJ36CVWwnFn0UGgIxW29-162" value="" style="shape=partialRectangle;overflow=hidden;connectable=0;fillColor=none;top=0;left=0;bottom=0;right=0;align=left;spacingLeft=6;" parent="GJ36CVWwnFn0UGgIxW29-160" vertex="1">
          <mxGeometry x="30" width="170.9803921568627" height="30" as="geometry">
            <mxRectangle width="170.9803921568627" height="30" as="alternateBounds" />
          </mxGeometry>
        </mxCell>
        <mxCell id="GJ36CVWwnFn0UGgIxW29-163" value="" style="shape=partialRectangle;collapsible=0;dropTarget=0;pointerEvents=0;fillColor=none;points=[[0,0.5],[1,0.5]];portConstraint=eastwest;top=0;left=0;right=0;bottom=0;" parent="GJ36CVWwnFn0UGgIxW29-135" vertex="1">
          <mxGeometry y="300" width="200.9803921568627" height="30" as="geometry" />
        </mxCell>
        <mxCell id="GJ36CVWwnFn0UGgIxW29-164" value="" style="shape=partialRectangle;overflow=hidden;connectable=0;fillColor=none;top=0;left=0;bottom=0;right=0;" parent="GJ36CVWwnFn0UGgIxW29-163" vertex="1">
          <mxGeometry width="30" height="30" as="geometry">
            <mxRectangle width="30" height="30" as="alternateBounds" />
          </mxGeometry>
        </mxCell>
        <mxCell id="GJ36CVWwnFn0UGgIxW29-165" value="" style="shape=partialRectangle;overflow=hidden;connectable=0;fillColor=none;top=0;left=0;bottom=0;right=0;align=left;spacingLeft=6;" parent="GJ36CVWwnFn0UGgIxW29-163" vertex="1">
          <mxGeometry x="30" width="170.9803921568627" height="30" as="geometry">
            <mxRectangle width="170.9803921568627" height="30" as="alternateBounds" />
          </mxGeometry>
        </mxCell>
        <mxCell id="GJ36CVWwnFn0UGgIxW29-167" style="edgeStyle=orthogonalEdgeStyle;rounded=0;orthogonalLoop=1;jettySize=auto;html=1;exitX=0;exitY=0.5;exitDx=0;exitDy=0;entryX=0;entryY=0.5;entryDx=0;entryDy=0;" parent="GJ36CVWwnFn0UGgIxW29-174" source="GJ36CVWwnFn0UGgIxW29-1" target="GJ36CVWwnFn0UGgIxW29-49" edge="1">
          <mxGeometry relative="1" as="geometry" />
        </mxCell>
        <mxCell id="GJ36CVWwnFn0UGgIxW29-170" style="edgeStyle=orthogonalEdgeStyle;rounded=0;orthogonalLoop=1;jettySize=auto;html=1;exitX=0;exitY=0.5;exitDx=0;exitDy=0;entryX=0;entryY=0.5;entryDx=0;entryDy=0;" parent="GJ36CVWwnFn0UGgIxW29-174" source="C-vyLk0tnHw3VtMMgP7b-27" target="GJ36CVWwnFn0UGgIxW29-30" edge="1">
          <mxGeometry relative="1" as="geometry" />
        </mxCell>
        <mxCell id="GJ36CVWwnFn0UGgIxW29-172" style="edgeStyle=orthogonalEdgeStyle;rounded=0;orthogonalLoop=1;jettySize=auto;html=1;exitX=0;exitY=0.5;exitDx=0;exitDy=0;entryX=1;entryY=0.5;entryDx=0;entryDy=0;" parent="GJ36CVWwnFn0UGgIxW29-174" source="GJ36CVWwnFn0UGgIxW29-7" target="GJ36CVWwnFn0UGgIxW29-99" edge="1">
          <mxGeometry relative="1" as="geometry" />
        </mxCell>
        <mxCell id="GJ36CVWwnFn0UGgIxW29-173" style="edgeStyle=orthogonalEdgeStyle;rounded=0;orthogonalLoop=1;jettySize=auto;html=1;exitX=0;exitY=0.5;exitDx=0;exitDy=0;entryX=0;entryY=0.5;entryDx=0;entryDy=0;" parent="GJ36CVWwnFn0UGgIxW29-174" source="GJ36CVWwnFn0UGgIxW29-4" target="GJ36CVWwnFn0UGgIxW29-68" edge="1">
          <mxGeometry relative="1" as="geometry" />
        </mxCell>
        <mxCell id="GJ36CVWwnFn0UGgIxW29-175" style="edgeStyle=orthogonalEdgeStyle;rounded=0;orthogonalLoop=1;jettySize=auto;html=1;exitX=1;exitY=0.5;exitDx=0;exitDy=0;entryX=0;entryY=0.5;entryDx=0;entryDy=0;" parent="GJ36CVWwnFn0UGgIxW29-174" source="C-vyLk0tnHw3VtMMgP7b-24" target="GJ36CVWwnFn0UGgIxW29-136" edge="1">
          <mxGeometry relative="1" as="geometry" />
        </mxCell>
      </root>
    </mxGraphModel>
  </diagram>
</mxfile>
